<mxfile host="Electron" agent="Mozilla/5.0 (Windows NT 10.0; Win64; x64) AppleWebKit/537.36 (KHTML, like Gecko) draw.io/28.1.2 Chrome/138.0.7204.243 Electron/37.4.0 Safari/537.36" version="28.1.2">
  <diagram name="Seite-1" id="89wSPY4kAQEF7qGmLM9_">
    <mxGraphModel dx="1426" dy="841" grid="1" gridSize="10" guides="1" tooltips="1" connect="1" arrows="1" fold="1" page="1" pageScale="1" pageWidth="827" pageHeight="1169" math="0" shadow="0">
      <root>
        <mxCell id="0" />
        <mxCell id="1" parent="0" />
        <mxCell id="QaPQEf9r8tx4STF53Oyd-22" value="" style="edgeStyle=orthogonalEdgeStyle;rounded=0;orthogonalLoop=1;jettySize=auto;html=1;" edge="1" parent="1" source="7eOOeXJmU72bEnZZmmaM-3" target="QaPQEf9r8tx4STF53Oyd-20">
          <mxGeometry relative="1" as="geometry" />
        </mxCell>
        <mxCell id="7eOOeXJmU72bEnZZmmaM-3" value="Start" style="ellipse;whiteSpace=wrap;html=1;" parent="1" vertex="1">
          <mxGeometry x="120" y="430" width="80" height="80" as="geometry" />
        </mxCell>
        <mxCell id="7eOOeXJmU72bEnZZmmaM-4" value="End" style="ellipse;whiteSpace=wrap;html=1;" parent="1" vertex="1">
          <mxGeometry x="120" y="830" width="80" height="80" as="geometry" />
        </mxCell>
        <mxCell id="QaPQEf9r8tx4STF53Oyd-1" value="&lt;h1 style=&quot;margin-top: 0px;&quot;&gt;functions()&lt;/h1&gt;&lt;p&gt;function defination!&lt;br&gt;so einfach ist es!&lt;br&gt;&lt;b&gt;def &lt;/b&gt;&lt;font style=&quot;color: rgb(102, 102, 255);&quot;&gt;&lt;b&gt;function_name&lt;/b&gt;&lt;/font&gt;()&lt;/p&gt;" style="text;html=1;whiteSpace=wrap;overflow=hidden;rounded=0;" vertex="1" parent="1">
          <mxGeometry x="490" y="630" width="180" height="120" as="geometry" />
        </mxCell>
        <mxCell id="QaPQEf9r8tx4STF53Oyd-2" value="&lt;h1 style=&quot;margin-top: 0px;&quot;&gt;&lt;span style=&quot;background-color: transparent; color: light-dark(rgb(0, 0, 0), rgb(255, 255, 255));&quot;&gt;camelCase&lt;/span&gt;&lt;/h1&gt;&lt;div&gt;&lt;span style=&quot;background-color: transparent; color: light-dark(rgb(0, 0, 0), rgb(255, 255, 255));&quot;&gt;für function und variablen wir müssen camel case verwenden!&lt;/span&gt;&lt;/div&gt;&lt;div&gt;&lt;span style=&quot;background-color: transparent; color: light-dark(rgb(0, 0, 0), rgb(255, 255, 255));&quot;&gt;&lt;br&gt;&lt;/span&gt;&lt;/div&gt;&lt;div&gt;&lt;span style=&quot;background-color: transparent; color: light-dark(rgb(0, 0, 0), rgb(255, 255, 255));&quot;&gt;&lt;b&gt;getFood()&lt;/b&gt;&lt;/span&gt;&lt;/div&gt;&lt;div&gt;&lt;span style=&quot;background-color: transparent; color: light-dark(rgb(0, 0, 0), rgb(255, 255, 255));&quot;&gt;&lt;b&gt;ageMachine()&lt;/b&gt;&lt;/span&gt;&lt;/div&gt;" style="text;html=1;whiteSpace=wrap;overflow=hidden;rounded=0;" vertex="1" parent="1">
          <mxGeometry x="490" y="440" width="180" height="140" as="geometry" />
        </mxCell>
        <mxCell id="QaPQEf9r8tx4STF53Oyd-3" value="&lt;h1 style=&quot;margin-top: 0px;&quot;&gt;&lt;span style=&quot;background-color: transparent; color: light-dark(rgb(0, 0, 0), rgb(255, 255, 255));&quot;&gt;PseudoCode&lt;/span&gt;&lt;/h1&gt;&lt;div&gt;&lt;span style=&quot;background-color: transparent; color: light-dark(rgb(0, 0, 0), rgb(255, 255, 255));&quot;&gt;def ageMachine(age) : void&lt;/span&gt;&lt;/div&gt;&lt;div&gt;&lt;span style=&quot;background-color: transparent; color: light-dark(rgb(0, 0, 0), rgb(255, 255, 255));&quot;&gt;&lt;br&gt;&lt;/span&gt;&lt;/div&gt;" style="text;html=1;whiteSpace=wrap;overflow=hidden;rounded=0;" vertex="1" parent="1">
          <mxGeometry x="490" y="790" width="180" height="120" as="geometry" />
        </mxCell>
        <mxCell id="QaPQEf9r8tx4STF53Oyd-18" value="&lt;font style=&quot;font-size: 18px;&quot;&gt;Routine ageMachine&lt;/font&gt;" style="swimlane;whiteSpace=wrap;html=1;startSize=40;align=center;" vertex="1" parent="1">
          <mxGeometry x="60" y="1100" width="740" height="620" as="geometry">
            <mxRectangle x="60" y="1100" width="140" height="30" as="alternateBounds" />
          </mxGeometry>
        </mxCell>
        <mxCell id="QaPQEf9r8tx4STF53Oyd-7" value="" style="edgeStyle=none;rounded=0;orthogonalLoop=1;jettySize=auto;html=1;" edge="1" parent="QaPQEf9r8tx4STF53Oyd-18" source="QaPQEf9r8tx4STF53Oyd-8" target="QaPQEf9r8tx4STF53Oyd-14">
          <mxGeometry relative="1" as="geometry" />
        </mxCell>
        <mxCell id="QaPQEf9r8tx4STF53Oyd-8" value="Input" style="shape=parallelogram;perimeter=parallelogramPerimeter;whiteSpace=wrap;html=1;fixedSize=1;" vertex="1" parent="QaPQEf9r8tx4STF53Oyd-18">
          <mxGeometry x="40" y="189" width="120" height="60" as="geometry" />
        </mxCell>
        <mxCell id="QaPQEf9r8tx4STF53Oyd-11" value="aha. eines Tages du wirst alt auch" style="rounded=1;whiteSpace=wrap;html=1;" vertex="1" parent="QaPQEf9r8tx4STF53Oyd-18">
          <mxGeometry x="180" y="299" width="120" height="60" as="geometry" />
        </mxCell>
        <mxCell id="QaPQEf9r8tx4STF53Oyd-12" value="no" style="edgeStyle=none;rounded=0;orthogonalLoop=1;jettySize=auto;html=1;" edge="1" parent="QaPQEf9r8tx4STF53Oyd-18" source="QaPQEf9r8tx4STF53Oyd-14" target="QaPQEf9r8tx4STF53Oyd-11">
          <mxGeometry relative="1" as="geometry" />
        </mxCell>
        <mxCell id="QaPQEf9r8tx4STF53Oyd-13" value="yes" style="edgeStyle=none;rounded=0;orthogonalLoop=1;jettySize=auto;html=1;" edge="1" parent="QaPQEf9r8tx4STF53Oyd-18" source="QaPQEf9r8tx4STF53Oyd-14" target="QaPQEf9r8tx4STF53Oyd-16">
          <mxGeometry relative="1" as="geometry" />
        </mxCell>
        <mxCell id="QaPQEf9r8tx4STF53Oyd-14" value="over 50" style="rhombus;whiteSpace=wrap;html=1;" vertex="1" parent="QaPQEf9r8tx4STF53Oyd-18">
          <mxGeometry x="60" y="289" width="80" height="80" as="geometry" />
        </mxCell>
        <mxCell id="QaPQEf9r8tx4STF53Oyd-15" value="" style="edgeStyle=none;rounded=0;orthogonalLoop=1;jettySize=auto;html=1;" edge="1" parent="QaPQEf9r8tx4STF53Oyd-18" source="QaPQEf9r8tx4STF53Oyd-16">
          <mxGeometry relative="1" as="geometry">
            <mxPoint x="100" y="499" as="targetPoint" />
          </mxGeometry>
        </mxCell>
        <mxCell id="QaPQEf9r8tx4STF53Oyd-16" value="Du bist Alt Geworden" style="rounded=1;whiteSpace=wrap;html=1;" vertex="1" parent="QaPQEf9r8tx4STF53Oyd-18">
          <mxGeometry x="40" y="409" width="120" height="60" as="geometry" />
        </mxCell>
        <mxCell id="QaPQEf9r8tx4STF53Oyd-17" style="edgeStyle=none;rounded=0;orthogonalLoop=1;jettySize=auto;html=1;exitX=1;exitY=0.5;exitDx=0;exitDy=0;entryX=1;entryY=0.5;entryDx=0;entryDy=0;" edge="1" parent="QaPQEf9r8tx4STF53Oyd-18" source="QaPQEf9r8tx4STF53Oyd-11">
          <mxGeometry relative="1" as="geometry">
            <mxPoint x="140" y="539" as="targetPoint" />
            <mxPoint x="300" y="329" as="sourcePoint" />
            <Array as="points">
              <mxPoint x="340" y="329" />
              <mxPoint x="340" y="539" />
            </Array>
          </mxGeometry>
        </mxCell>
        <mxCell id="QaPQEf9r8tx4STF53Oyd-5" value="Start" style="ellipse;whiteSpace=wrap;html=1;" vertex="1" parent="QaPQEf9r8tx4STF53Oyd-18">
          <mxGeometry x="60" y="69" width="80" height="80" as="geometry" />
        </mxCell>
        <mxCell id="QaPQEf9r8tx4STF53Oyd-19" value="" style="edgeStyle=orthogonalEdgeStyle;rounded=0;orthogonalLoop=1;jettySize=auto;html=1;" edge="1" parent="QaPQEf9r8tx4STF53Oyd-18" source="QaPQEf9r8tx4STF53Oyd-5" target="QaPQEf9r8tx4STF53Oyd-8">
          <mxGeometry relative="1" as="geometry" />
        </mxCell>
        <mxCell id="QaPQEf9r8tx4STF53Oyd-6" value="End" style="ellipse;whiteSpace=wrap;html=1;" vertex="1" parent="QaPQEf9r8tx4STF53Oyd-18">
          <mxGeometry x="60" y="504" width="80" height="80" as="geometry" />
        </mxCell>
        <mxCell id="QaPQEf9r8tx4STF53Oyd-28" value="&lt;h1 style=&quot;margin-top: 0px;&quot;&gt;&lt;br&gt;&lt;/h1&gt;&lt;div&gt;START&lt;/div&gt;&lt;div&gt;&lt;span style=&quot;white-space: pre;&quot;&gt;&#x9;&lt;/span&gt;DEF ageMachine(age)&lt;br&gt;&lt;/div&gt;&lt;div&gt;&lt;span style=&quot;white-space: pre;&quot;&gt;&#x9;&lt;/span&gt;&lt;span style=&quot;white-space: pre;&quot;&gt;&#x9;&lt;/span&gt;WENN age &amp;gt; 50&lt;br&gt;&lt;/div&gt;&lt;div&gt;&lt;span style=&quot;white-space: pre;&quot;&gt;&#x9;&lt;/span&gt;&lt;span style=&quot;white-space: pre;&quot;&gt;&#x9;&lt;/span&gt;&lt;span style=&quot;white-space: pre;&quot;&gt;&#x9;&lt;/span&gt;OUTPUT : Du bist Alt geworden&lt;br&gt;&lt;/div&gt;&lt;div&gt;&lt;span style=&quot;white-space: pre;&quot;&gt;&#x9;&lt;/span&gt;&lt;span style=&quot;white-space: pre;&quot;&gt;&#x9;&lt;/span&gt;&lt;span style=&quot;white-space: pre;&quot;&gt;&#x9;&lt;/span&gt;END&lt;br&gt;&lt;/div&gt;&lt;div&gt;&lt;span style=&quot;white-space: pre;&quot;&gt;&#x9;&lt;/span&gt;&lt;span style=&quot;white-space: pre;&quot;&gt;&#x9;O&lt;/span&gt;UTPUT : aha. eines Tages du wirst alt auch&lt;br&gt;&lt;/div&gt;&lt;div&gt;&lt;br&gt;&lt;/div&gt;&lt;div&gt;&lt;br&gt;&lt;/div&gt;&lt;div&gt;&lt;br&gt;&lt;/div&gt;&lt;div&gt;END&lt;/div&gt;" style="text;html=1;whiteSpace=wrap;overflow=hidden;rounded=0;" vertex="1" parent="QaPQEf9r8tx4STF53Oyd-18">
          <mxGeometry x="410" y="80" width="300" height="230" as="geometry" />
        </mxCell>
        <mxCell id="QaPQEf9r8tx4STF53Oyd-27" value="" style="edgeStyle=orthogonalEdgeStyle;rounded=0;orthogonalLoop=1;jettySize=auto;html=1;" edge="1" parent="1" source="QaPQEf9r8tx4STF53Oyd-20" target="QaPQEf9r8tx4STF53Oyd-25">
          <mxGeometry relative="1" as="geometry" />
        </mxCell>
        <mxCell id="QaPQEf9r8tx4STF53Oyd-20" value="print: wie Alt bist DU!" style="rounded=1;whiteSpace=wrap;html=1;" vertex="1" parent="1">
          <mxGeometry x="100" y="545" width="120" height="60" as="geometry" />
        </mxCell>
        <mxCell id="QaPQEf9r8tx4STF53Oyd-24" value="" style="edgeStyle=orthogonalEdgeStyle;rounded=0;orthogonalLoop=1;jettySize=auto;html=1;" edge="1" parent="1" source="QaPQEf9r8tx4STF53Oyd-21" target="7eOOeXJmU72bEnZZmmaM-4">
          <mxGeometry relative="1" as="geometry" />
        </mxCell>
        <mxCell id="QaPQEf9r8tx4STF53Oyd-21" value="ageMachine" style="shape=process;whiteSpace=wrap;html=1;backgroundOutline=1;" vertex="1" parent="1">
          <mxGeometry x="100" y="730" width="120" height="60" as="geometry" />
        </mxCell>
        <mxCell id="QaPQEf9r8tx4STF53Oyd-26" value="" style="edgeStyle=orthogonalEdgeStyle;rounded=0;orthogonalLoop=1;jettySize=auto;html=1;" edge="1" parent="1" source="QaPQEf9r8tx4STF53Oyd-25" target="QaPQEf9r8tx4STF53Oyd-21">
          <mxGeometry relative="1" as="geometry" />
        </mxCell>
        <mxCell id="QaPQEf9r8tx4STF53Oyd-25" value="input: age" style="shape=parallelogram;perimeter=parallelogramPerimeter;whiteSpace=wrap;html=1;fixedSize=1;" vertex="1" parent="1">
          <mxGeometry x="100" y="640" width="120" height="60" as="geometry" />
        </mxCell>
      </root>
    </mxGraphModel>
  </diagram>
</mxfile>
